<svg xmlns="http://www.w3.org/2000/svg" width="24" height="24" fill="none" id="thumb-up">
  <path fill="#000" fill-rule="evenodd" d="M3 11a.5.5 0 0 1 .5-.5H7a.5.5 0 0 1 .5.5v9a.5.5 0 0 1-.5.5H3.5A.5.5 0 0 1 3 20v-9Zm1 .5v8h2.5v-8H4Z" clip-rule="evenodd"></path>
  <path fill="#000" fill-rule="evenodd" d="M13.863 6.07a1 1 0 0 0-1.656.39l-.733 2.198a.5.5 0 0 1-.102.176l-2.25 2.5a.5.5 0 0 1-.372.166H7.5v8h9.797a1 1 0 0 0 .976-.783l1.198-5.392a1.5 1.5 0 0 0-1.464-1.825H14a.5.5 0 0 1-.488-.608l.821-3.697a1 1 0 0 0-.269-.924l-.201-.201Zm-2.605.074a2 2 0 0 1 3.312-.781l.201.201a2 2 0 0 1 .538 1.848l-.686 3.088h3.384a2.5 2.5 0 0 1 2.44 3.042l-1.198 5.392a2 2 0 0 1-1.952 1.566H7a.5.5 0 0 1-.5-.5v-9a.5.5 0 0 1 .5-.5h1.527l2.032-2.257.7-2.099Z" clip-rule="evenodd"></path>
</svg>
